<svg id="Layer_1" data-name="Layer 1" xmlns="http://www.w3.org/2000/svg" viewBox="0 0 512 512"><defs><style>.cls-1{fill:#ea8d28;}.cls-2{opacity:0.12;}.cls-3{fill:#17292d;}.cls-4{fill:#ffa840;}.cls-5{fill:#c15d25;}</style></defs><title>coins-1-flat</title><circle class="cls-1" cx="345.6" cy="256" r="166.4"/><g class="cls-2"><path class="cls-3" d="M281.49,102.42a166.44,166.44,0,0,0,0,307.17,191.8,191.8,0,0,0,0-307.17Z"/></g><circle class="cls-4" cx="166.4" cy="256" r="166.4"/><path class="cls-5" d="M173.68,179.2c5.22,0,6.9,1.68,6.9,6.71v7.65c15.1,2.61,25.73,10.62,32.06,24.23,2.8,5.22,1.49,8-4.29,10.44L195.49,234c-5,2.24-7.46,1.49-10.26-3.73-3.73-7.27-8.57-10.81-18.82-10.81-13.23,0-18.83,2.8-18.83,10.81,0,6.9,7.83,9.51,22.18,11A130,130,0,0,1,191,244.81a36.41,36.41,0,0,1,10.07,4.29c8.39,5,16.4,14.72,15.66,30.76,0,19.95-13.05,33.74-36.17,38v8c0,5.22-1.68,6.9-6.9,6.9H159.51c-5,0-6.9-1.68-6.9-6.9v-7.64c-18.27-2.8-30.2-11.93-36-27.22q-2.52-7.27,5-10.06l12.68-4.48c5.41-2,8-.93,10.44,4.48,3,7.64,9.88,11.37,20.51,11.37,14.17,0,21.25-3.92,21.25-11.94,0-7.45-7.27-9.88-22-11.37-10.44-1.31-15.85-1.87-25.36-5.59a32.36,32.36,0,0,1-11.55-6.53c-5.78-5-10.63-14.54-10.63-26.65,0-19.58,12.49-33,35.61-36.72v-7.65c0-5,1.86-6.71,6.9-6.71Z"/></svg>